<?xml version="1.0" encoding="utf-8"?>
<!-- Generator: Adobe Illustrator 26.5.0, SVG Export Plug-In . SVG Version: 6.00 Build 0)  -->
<svg version="1.1" id="Layer_1" xmlns="http://www.w3.org/2000/svg" xmlns:xlink="http://www.w3.org/1999/xlink" x="0px" y="0px"
	 viewBox="0 0 116 346" style="enable-background:new 0 0 116 346;" xml:space="preserve">
<style type="text/css">
	.st0{fill:#203D99;stroke:#061030;stroke-width:0.7;}
	.st1{fill:#FFFFFF;stroke:#061030;stroke-width:0.7;}
	.st2{fill:#FFFFFF;stroke:#061030;stroke-width:0.5;}
	.st3{fill:#F4D8B6;stroke:#061030;stroke-width:0.2;}
	.st4{fill:#FFFFFF;}
	.st5{fill:none;stroke:#061030;stroke-width:0.5;}
	.st6{fill:none;stroke:#061030;}
	.st7{fill:#FFFFFF;stroke:#0C2165;stroke-width:0.7;}
	.st8{fill:none;stroke:#061030;stroke-width:0.7;}
	.st9{fill:none;stroke:#AE3131;stroke-width:0.7;}
	.st10{fill:#D9D9D9;stroke:#061030;stroke-width:0.5;}
	.st11{fill:#F4D8B6;stroke:#061030;stroke-width:0.7;}
	.st12{fill:#0C2165;}
	.st13{fill:#0C2165;stroke:#061030;stroke-width:0.5;}
	.st14{fill:#C90303;}
	.st15{fill:#F4D8B6;}
	.st16{fill:#FBB03B;}
	.st17{fill:none;stroke:#F68808;stroke-width:0.5;}
</style>
<g id="Layer_24">
	<path class="st0" d="M68.7,200.6H39.2c-1.2,0-2.2,0.9-2.3,2.2l-4.6,56.6c0,0.1,0,0.2,0,0.2l-12.7,54.1c-0.3,1.3,0.5,2.6,1.8,2.8
		l33.8,6.9c0.3,0.1,0.6,0.2,0.8,0.5l8,8c1.5,1.5,4.1,0.4,4-1.7l-2.2-66.7l5.3-60.3C71.1,201.8,70,200.6,68.7,200.6z"/>
</g>
<g id="Layer_23">
	<path class="st1" d="M27.4,326.6l1.1-7.8l25.9,4.7l10.7,7.1l3.4,4.5l-2.2,3.2H57l-9.5-2.4L27.4,326.6z"/>
</g>
<g id="Layer_22">
	<path class="st0" d="M84.7,198.3H43.3c-1.5,0-2.6,1.3-2.3,2.7l22,130.9c0.2,1.3,1.4,2.1,2.7,1.9l43.9-7.7c1.3-0.2,2.2-1.5,1.9-2.8
		L87.1,200.1C86.8,199,85.9,198.3,84.7,198.3z"/>
</g>
<g id="Layer_21">
	<path class="st1" d="M71.2,343.9v-10.1l24.7-4.7l15.3,8.2l2.2,7.8H92.4L71.2,343.9z"/>
</g>
<g id="Layer_20">
	<path class="st2" d="M102.5,186.6L102.5,186.6l0,0.1l0.1,11.5l-22.8,0.2l6.7-39.2l11.7-36.7l9,18.2l2.8,18.8l0.1,9.4l-3.8,10.6
		L102.5,186.6z"/>
</g>
<g id="Layer_19">
	<path class="st3" d="M82,196.2l16.5-0.2l-1.1,8.2l-2.3,6.9l-5.9,4.2l-5.9-4l-1.3-8.3L82,196.2z"/>
</g>
<g id="Layer_18">
	<path class="st4" d="M94.3,124.4l3.6-1.2l1.2,4.8l1.1,2.4l-1.2,0l-0.5,53.8l0.1,13.2l-22.7,0.2l5.7-24l3.4-20.4L94.3,124.4z"/>
</g>
<g id="Layer_17">
	<line class="st5" x1="74.4" y1="95.5" x2="91.2" y2="95.5"/>
</g>
<g id="Layer_16">
	<line class="st5" x1="19.4" y1="100.2" x2="45.7" y2="100.2"/>
</g>
<g id="Layer_15">
	<path class="st6" d="M85.2,84.9l-11.6,8.1c-0.2,0.2-0.4,0.3-0.6,0.5l-11.7,14"/>
</g>
<g id="Layer_14">
	<path class="st6" d="M41.6,89.9l12,5.1c0.3,0.1,0.6,0.3,0.8,0.5l14.7,13"/>
</g>
<g id="Layer_13">
	<path class="st1" d="M9.5,120.7l-0.1,0.1l0,0.1l6,16.7l-3.6,40.5l-3.6,7.1l-0.1,0.2l0.2,0.2l8.4,7.2l0,0l0,0l7.2,3.6l0,0l0,0
		l17.9,3.6l0,0l0,0l16.7-1.2l0,0l0,0l5.9-1.2l16.6,1.1l0,0h0l14.5-0.5h6h0.3V198v-11v-0.3l-0.3,0l-10.5-1.5v-8l4.8-25.1l0,0l0,0
		l2.4-27.5l0-0.1l0-0.1l-3.6-9.5l-3.6-20.2l3.5-4.7l0.1-0.1l-0.1-0.2l-2.4-7.2l-0.1-0.2l-0.2,0l-20.9-2.6l-0.2,0l-0.1,0.2l-3,5l0,0
		l-3.3,5.7l-11.7-6.8l-10.9-8.6L42.2,75l-0.1,0l-9.6,0.1l-0.2,0l-0.1,0.2l-3.5,6.9l-9.4,2.4L19,84.7v0.3v14.3L9.5,120.7z"/>
</g>
<g id="Layer_12">
	<path class="st4" d="M95.1,125.5l3.4-1.1l1.1,4.5l1.1,2.2h-1.1L103,184l-1,2.5V198l-24.9-3.7l5.4-22.9l3.4-19L95.1,125.5z"/>
</g>
<g id="Layer_11">
	<g>
		<line class="st5" x1="84" y1="151" x2="48.1" y2="151"/>
	</g>
</g>
<g id="Layer_10">
	<g>
		<line class="st5" x1="74.4" y1="182.1" x2="48.1" y2="182.1"/>
	</g>
</g>
<g id="Layer_9">
	<g>
		<line class="st5" x1="67.2" y1="191.7" x2="45.7" y2="191.7"/>
	</g>
</g>
<g id="Layer_8">
	<g>
		<path class="st7" d="M1.5,177.7l-0.8-38.3l10.8-31.2l18,0.7l13.9,10.5l1.5,69.4l-3.4,7.3l-2.3,2.4l0.1,6l-15.4,5.1l-1.3-4.8
			l-0.1-6l-8.3-4.5l-8.3-6.8L1.5,177.7z"/>
		<path class="st8" d="M18.1,113.9l-6.4,36l0.8,39.5"/>
		<path class="st9" d="M24.1,111.4l-3.3,14.4l-4.2,27.6l-0.8,20.4l0.4,16.7l3.7,4.7"/>
		<path class="st9" d="M28.7,112.9l-3.3,14.4l-4.2,27.6l-0.8,20.4l0.4,16.7l3.7,4.7"/>
		<path class="st4" d="M17,105.3l28.7,2.4L44.5,122l-7.2-6l-7.2-4.8l-17.9,1.2L17,105.3z"/>
		<path class="st10" d="M55.7,225l-6.3,12.3c-0.5,1-1.8,1.4-2.7,0.8l-13.9-7.7c-0.8-0.5-1.2-1.4-0.9-2.3l2.8-9
			c0.1-0.2,0.2-0.4,0.3-0.6l2.7-3.7c0.4-0.5,1-0.9,1.7-0.8l2.2,0.1c0.4,0,0.7,0.1,1,0.3l12.6,8C55.8,223,56.2,224.1,55.7,225z"/>
		<path class="st11" d="M19.7,218l5.2-10.9l15.5-2.7l3.8,8.3l-4.7,2.5l-4.7,6.1l-2.2,8.4l-2.4-2.3l-7.2-2.2L19.7,218z"/>
		<path class="st12" d="M47.9,222.2l4.8-0.1l-1.1,4.8l-2.9,3.9l-0.6-1.4l-2.4-2.3L47.9,222.2z"/>
	</g>
</g>
<g id="Layer_7">
	<path class="st13" d="M92.4,82.6V68.2L48.1,12l-9.6,4.8l-8.4,7.2l-4.8,12l-1.2,12l1.2,10.8v9.6l-4.8,3.6v6l-4.8,4.8l0,8.4l3.6,8.4
		V86.1l9.6-3.6l3.6-7.2h9.6l22.7,15.6L72,80.2L92.4,82.6z"/>
</g>
<g id="Layer_6">
	<path class="st14" d="M54.1,49.1c0,5.9-4.2,12-10.8,12c-8.4,0-12-6-12-12s4.2-10.8,10.8-10.8C48.7,38.3,54.1,43.2,54.1,49.1z"/>
</g>
<g id="Layer_5">
	<path class="st14" d="M30.9,18.5l4.7-3.9c0.7-0.6,1.8-0.1,1.8,0.8c0,0.1,0,0.1,0,0.2l-1.1,8c0,0.2,0,0.3,0,0.5l1.1,10.1
		c0,0.3,0,0.6-0.1,0.9l-0.3,0.8c-0.4,1.2-1.8,1.7-2.9,1.1l-2.9-1.7c-0.6-0.4-1-1-1-1.7V20.1C30.2,19.5,30.4,18.9,30.9,18.5z"/>
</g>
<g id="Layer_4">
	<path class="st15" d="M50.5,63.4l1.2-23.9l13.2-2.4l9.6,4.8l2.4,27.5L73.2,73l-4.8,1.2v9.6l-3.6,6l-10.8-6V67L50.5,63.4z"/>
</g>
<g id="Layer_3">
	<path class="st16" d="M48.1,6l8.4-1.2l6-4.8l20.3,10.8l10.8,10.8l8.4,15.6v14.4l-2.4,7.2l7.2,8.4l6,3.6l2.4,4.8l-3.6,3.6l-8.4-4.8
		l-4.8-2.4l-4.8-7.2L78,68.2h-8.4L68.4,73h-9.6v-9.6V52.6l3.6-9.6l-4.8-8.4l-1.2-3.6l-2.4-1.2h-9.6v-4.8l4.8-3.6L48.1,6z"/>
</g>
<g id="Layer_2">
	<g>
		<path class="st17" d="M64.9,12l9.6,7.2l8.4,8.4l8.4,10.8v12"/>
		<path class="st17" d="M66.7,22.9l7.3-5.8c0.3-0.2,0.6-0.4,1-0.4l10.2-1.1"/>
		<path class="st17" d="M82.3,44.6l8.5-7.2c0.2-0.2,0.5-0.3,0.8-0.4l9.1-2.3"/>
		<path class="st17" d="M69.6,34.7l4.6-5.8c0.1-0.1,0.2-0.2,0.3-0.3l5.4-4.3c0.3-0.2,0.6-0.4,0.9-0.4l6.3-1.1c0.2,0,0.5,0,0.7,0
			l5.6,1.1"/>
		<path class="st17" d="M75.5,42.2l3.3-7c0.2-0.5,0.7-0.9,1.2-1l4.6-1.5l6.8-2.2c0.1,0,0.2-0.1,0.3-0.1l6.2-0.9"/>
	</g>
</g>
</svg>
